<mxfile host="Electron" agent="Mozilla/5.0 (Windows NT 10.0; Win64; x64) AppleWebKit/537.36 (KHTML, like Gecko) draw.io/28.1.2 Chrome/138.0.7204.243 Electron/37.4.0 Safari/537.36" version="28.1.2">
  <diagram name="Page-1" id="457ypzttXWda-eYi_R_y">
    <mxGraphModel dx="932" dy="1695" grid="0" gridSize="10" guides="1" tooltips="1" connect="1" arrows="1" fold="1" page="1" pageScale="1" pageWidth="850" pageHeight="1100" math="0" shadow="0">
      <root>
        <mxCell id="0" />
        <mxCell id="1" parent="0" />
        <mxCell id="zbEnyVfBedPuxn5ER8I3-1" value="" style="whiteSpace=wrap;html=1;aspect=fixed;strokeColor=#FF5500;fillColor=#FFCC99;" parent="1" vertex="1">
          <mxGeometry x="141" y="-229" width="968" height="968" as="geometry" />
        </mxCell>
        <mxCell id="zbEnyVfBedPuxn5ER8I3-5" value="" style="endArrow=none;dashed=1;html=1;rounded=0;strokeColor=#FF5500;" parent="1" target="zbEnyVfBedPuxn5ER8I3-1" edge="1">
          <mxGeometry width="50" height="50" relative="1" as="geometry">
            <mxPoint x="141" y="-69" as="sourcePoint" />
            <mxPoint x="191" y="-119" as="targetPoint" />
            <Array as="points">
              <mxPoint x="1113" y="-66" />
            </Array>
          </mxGeometry>
        </mxCell>
        <mxCell id="zbEnyVfBedPuxn5ER8I3-6" value="" style="endArrow=none;dashed=1;html=1;rounded=0;strokeColor=#FF5500;" parent="1" edge="1">
          <mxGeometry width="50" height="50" relative="1" as="geometry">
            <mxPoint x="141" y="316" as="sourcePoint" />
            <mxPoint x="1111" y="320" as="targetPoint" />
            <Array as="points">
              <mxPoint x="1113" y="319" />
            </Array>
          </mxGeometry>
        </mxCell>
        <mxCell id="zbEnyVfBedPuxn5ER8I3-7" value="" style="verticalLabelPosition=bottom;verticalAlign=top;html=1;shape=mxgraph.basic.rect;fillColor2=none;strokeWidth=1;size=20;indent=5;strokeColor=#1DA2D0;fillColor=#CCE5FF;" parent="1" vertex="1">
          <mxGeometry x="159" y="-211" width="928" height="127" as="geometry" />
        </mxCell>
        <mxCell id="zbEnyVfBedPuxn5ER8I3-9" value="" style="endArrow=none;dashed=1;html=1;rounded=0;strokeColor=#1DA2D0;" parent="1" source="zbEnyVfBedPuxn5ER8I3-7" edge="1">
          <mxGeometry width="50" height="50" relative="1" as="geometry">
            <mxPoint x="391" y="-160" as="sourcePoint" />
            <mxPoint x="441" y="-210" as="targetPoint" />
            <Array as="points">
              <mxPoint x="441" y="-87" />
            </Array>
          </mxGeometry>
        </mxCell>
        <mxCell id="zbEnyVfBedPuxn5ER8I3-10" value="" style="endArrow=none;dashed=1;html=1;rounded=0;strokeColor=#1DA2D0;" parent="1" edge="1">
          <mxGeometry width="50" height="50" relative="1" as="geometry">
            <mxPoint x="743" y="-86" as="sourcePoint" />
            <mxPoint x="752" y="-212" as="targetPoint" />
            <Array as="points">
              <mxPoint x="752" y="-89" />
            </Array>
          </mxGeometry>
        </mxCell>
        <mxCell id="zbEnyVfBedPuxn5ER8I3-11" value="Title" style="text;strokeColor=none;fillColor=none;html=1;fontSize=24;fontStyle=1;verticalAlign=middle;align=center;" parent="1" vertex="1">
          <mxGeometry x="204" y="-161" width="100" height="40" as="geometry" />
        </mxCell>
        <mxCell id="zbEnyVfBedPuxn5ER8I3-12" value="Button" style="text;strokeColor=none;fillColor=none;html=1;fontSize=24;fontStyle=1;verticalAlign=middle;align=center;" parent="1" vertex="1">
          <mxGeometry x="553" y="-161" width="100" height="40" as="geometry" />
        </mxCell>
        <mxCell id="zbEnyVfBedPuxn5ER8I3-13" value="Button" style="text;strokeColor=none;fillColor=none;html=1;fontSize=24;fontStyle=1;verticalAlign=middle;align=center;" parent="1" vertex="1">
          <mxGeometry x="848" y="-161" width="100" height="40" as="geometry" />
        </mxCell>
        <mxCell id="zbEnyVfBedPuxn5ER8I3-14" value="" style="rounded=0;whiteSpace=wrap;html=1;strokeColor=#1DA2D0;fillColor=#CCE5FF;" parent="1" vertex="1">
          <mxGeometry x="158" y="-46" width="931" height="339" as="geometry" />
        </mxCell>
        <mxCell id="zbEnyVfBedPuxn5ER8I3-15" value="" style="endArrow=none;dashed=1;html=1;rounded=0;strokeColor=#1DA2D0;" parent="1" source="zbEnyVfBedPuxn5ER8I3-14" edge="1">
          <mxGeometry width="50" height="50" relative="1" as="geometry">
            <mxPoint x="433" y="86" as="sourcePoint" />
            <mxPoint x="442" y="-40" as="targetPoint" />
            <Array as="points">
              <mxPoint x="446" y="290" />
            </Array>
          </mxGeometry>
        </mxCell>
        <mxCell id="zbEnyVfBedPuxn5ER8I3-17" value="" style="endArrow=none;dashed=1;html=1;rounded=0;strokeColor=#1DA2D0;" parent="1" edge="1">
          <mxGeometry width="50" height="50" relative="1" as="geometry">
            <mxPoint x="760" y="287" as="sourcePoint" />
            <mxPoint x="759" y="-46" as="targetPoint" />
            <Array as="points">
              <mxPoint x="763" y="284" />
            </Array>
          </mxGeometry>
        </mxCell>
        <mxCell id="zbEnyVfBedPuxn5ER8I3-18" value="&lt;b&gt;&lt;font style=&quot;font-size: 24px;&quot;&gt;KPI&lt;/font&gt;&lt;/b&gt;" style="text;html=1;align=center;verticalAlign=middle;whiteSpace=wrap;rounded=0;" parent="1" vertex="1">
          <mxGeometry x="224" y="70" width="140" height="97" as="geometry" />
        </mxCell>
        <mxCell id="zbEnyVfBedPuxn5ER8I3-19" value="&lt;b&gt;&lt;font style=&quot;font-size: 24px;&quot;&gt;KPI&lt;/font&gt;&lt;/b&gt;" style="text;html=1;align=center;verticalAlign=middle;whiteSpace=wrap;rounded=0;" parent="1" vertex="1">
          <mxGeometry x="537" y="77" width="140" height="97" as="geometry" />
        </mxCell>
        <mxCell id="zbEnyVfBedPuxn5ER8I3-20" value="&lt;b&gt;&lt;font style=&quot;font-size: 24px;&quot;&gt;KPI&lt;/font&gt;&lt;/b&gt;" style="text;html=1;align=center;verticalAlign=middle;whiteSpace=wrap;rounded=0;" parent="1" vertex="1">
          <mxGeometry x="855" y="70" width="140" height="97" as="geometry" />
        </mxCell>
        <mxCell id="zbEnyVfBedPuxn5ER8I3-23" value="" style="rounded=0;whiteSpace=wrap;html=1;strokeColor=#1DA2D0;fillColor=#CCE5FF;" parent="1" vertex="1">
          <mxGeometry x="167" y="338" width="922" height="381" as="geometry" />
        </mxCell>
        <mxCell id="zbEnyVfBedPuxn5ER8I3-24" value="" style="endArrow=none;dashed=1;html=1;rounded=0;strokeColor=#1DA2D0;" parent="1" edge="1">
          <mxGeometry width="50" height="50" relative="1" as="geometry">
            <mxPoint x="619" y="675.5" as="sourcePoint" />
            <mxPoint x="618" y="342.5" as="targetPoint" />
            <Array as="points">
              <mxPoint x="622" y="713.5" />
            </Array>
          </mxGeometry>
        </mxCell>
        <mxCell id="zbEnyVfBedPuxn5ER8I3-26" value="&lt;font style=&quot;font-size: 24px;&quot;&gt;Chart&lt;/font&gt;" style="text;strokeColor=none;fillColor=none;html=1;fontSize=24;fontStyle=1;verticalAlign=middle;align=center;" parent="1" vertex="1">
          <mxGeometry x="364" y="497" width="119" height="62" as="geometry" />
        </mxCell>
        <mxCell id="zbEnyVfBedPuxn5ER8I3-27" value="&lt;font style=&quot;font-size: 24px;&quot;&gt;Chart&lt;/font&gt;" style="text;strokeColor=none;fillColor=none;html=1;fontSize=24;fontStyle=1;verticalAlign=middle;align=center;" parent="1" vertex="1">
          <mxGeometry x="780" y="497.5" width="119" height="62" as="geometry" />
        </mxCell>
        <mxCell id="zbEnyVfBedPuxn5ER8I3-28" value="" style="rounded=0;whiteSpace=wrap;html=1;strokeColor=#FF5500;fillColor=#FFCC99;" parent="1" vertex="1">
          <mxGeometry x="1170" y="-223" width="160" height="968" as="geometry" />
        </mxCell>
        <mxCell id="zbEnyVfBedPuxn5ER8I3-31" value="" style="endArrow=none;dashed=1;html=1;rounded=0;exitX=-0.008;exitY=0.148;exitDx=0;exitDy=0;exitPerimeter=0;entryX=1.042;entryY=0.146;entryDx=0;entryDy=0;entryPerimeter=0;strokeColor=#FF5500;" parent="1" edge="1">
          <mxGeometry width="50" height="50" relative="1" as="geometry">
            <mxPoint x="1169.9999999999998" y="-65.73599999999988" as="sourcePoint" />
            <mxPoint x="1337.9999999999998" y="-67.67200000000003" as="targetPoint" />
            <Array as="points">
              <mxPoint x="1258.28" y="-68" />
            </Array>
          </mxGeometry>
        </mxCell>
        <mxCell id="zbEnyVfBedPuxn5ER8I3-32" value="" style="endArrow=none;dashed=1;html=1;rounded=0;exitX=-0.008;exitY=0.148;exitDx=0;exitDy=0;exitPerimeter=0;entryX=1.042;entryY=0.146;entryDx=0;entryDy=0;entryPerimeter=0;strokeColor=#FF5500;" parent="1" edge="1">
          <mxGeometry width="50" height="50" relative="1" as="geometry">
            <mxPoint x="1173" y="95" as="sourcePoint" />
            <mxPoint x="1341" y="93" as="targetPoint" />
          </mxGeometry>
        </mxCell>
        <mxCell id="zbEnyVfBedPuxn5ER8I3-33" value="" style="endArrow=none;dashed=1;html=1;rounded=0;exitX=-0.008;exitY=0.148;exitDx=0;exitDy=0;exitPerimeter=0;entryX=1.042;entryY=0.146;entryDx=0;entryDy=0;entryPerimeter=0;strokeColor=#FF5500;" parent="1" edge="1">
          <mxGeometry width="50" height="50" relative="1" as="geometry">
            <mxPoint x="1172" y="253" as="sourcePoint" />
            <mxPoint x="1340" y="251" as="targetPoint" />
          </mxGeometry>
        </mxCell>
        <mxCell id="zbEnyVfBedPuxn5ER8I3-34" value="" style="endArrow=none;dashed=1;html=1;rounded=0;exitX=-0.008;exitY=0.148;exitDx=0;exitDy=0;exitPerimeter=0;entryX=1.042;entryY=0.146;entryDx=0;entryDy=0;entryPerimeter=0;strokeColor=#FF5500;" parent="1" edge="1">
          <mxGeometry width="50" height="50" relative="1" as="geometry">
            <mxPoint x="1168" y="416" as="sourcePoint" />
            <mxPoint x="1336" y="414" as="targetPoint" />
          </mxGeometry>
        </mxCell>
        <mxCell id="zbEnyVfBedPuxn5ER8I3-35" value="" style="endArrow=none;dashed=1;html=1;rounded=0;exitX=-0.008;exitY=0.148;exitDx=0;exitDy=0;exitPerimeter=0;entryX=1.042;entryY=0.146;entryDx=0;entryDy=0;entryPerimeter=0;strokeColor=#FF5500;" parent="1" edge="1">
          <mxGeometry width="50" height="50" relative="1" as="geometry">
            <mxPoint x="1177" y="578" as="sourcePoint" />
            <mxPoint x="1345" y="576" as="targetPoint" />
          </mxGeometry>
        </mxCell>
        <mxCell id="zbEnyVfBedPuxn5ER8I3-36" value="Filter" style="text;strokeColor=none;fillColor=none;html=1;fontSize=24;fontStyle=1;verticalAlign=middle;align=center;" parent="1" vertex="1">
          <mxGeometry x="1189" y="-173" width="100" height="40" as="geometry" />
        </mxCell>
        <mxCell id="zbEnyVfBedPuxn5ER8I3-37" value="Filter" style="text;strokeColor=none;fillColor=none;html=1;fontSize=24;fontStyle=1;verticalAlign=middle;align=center;" parent="1" vertex="1">
          <mxGeometry x="1189" y="-4" width="100" height="40" as="geometry" />
        </mxCell>
        <mxCell id="zbEnyVfBedPuxn5ER8I3-38" value="Filter" style="text;strokeColor=none;fillColor=none;html=1;fontSize=24;fontStyle=1;verticalAlign=middle;align=center;" parent="1" vertex="1">
          <mxGeometry x="1196" y="165" width="100" height="40" as="geometry" />
        </mxCell>
        <mxCell id="zbEnyVfBedPuxn5ER8I3-39" value="Filter" style="text;strokeColor=none;fillColor=none;html=1;fontSize=24;fontStyle=1;verticalAlign=middle;align=center;" parent="1" vertex="1">
          <mxGeometry x="1205" y="316" width="100" height="40" as="geometry" />
        </mxCell>
        <mxCell id="zbEnyVfBedPuxn5ER8I3-40" value="Filter" style="text;strokeColor=none;fillColor=none;html=1;fontSize=24;fontStyle=1;verticalAlign=middle;align=center;" parent="1" vertex="1">
          <mxGeometry x="1196" y="476" width="100" height="40" as="geometry" />
        </mxCell>
        <mxCell id="zbEnyVfBedPuxn5ER8I3-41" value="Filter" style="text;strokeColor=none;fillColor=none;html=1;fontSize=24;fontStyle=1;verticalAlign=middle;align=center;" parent="1" vertex="1">
          <mxGeometry x="1200" y="622" width="100" height="53" as="geometry" />
        </mxCell>
      </root>
    </mxGraphModel>
  </diagram>
</mxfile>
